# xmcd
#
# Track frame offsets:
#	150
#	13273
#	25600
#	35728
#	47475
#	57918
#	72034
#	83374
#	93236
#	104261
#	116356
#	130151
#	142129
#	154856
#	165889
#	178454
#	190702
#	202649
#	209330
#	218986
#
# Disc length: 3069 seconds
# Revision: 0
# Processed by: cddbd v1.5.2PL0 Copyright (c) Steve Scherf et al.
# Submitted via: dBpowerAMP V12.0
#
DISCID=090bfb14
DTITLE=Various Artist - Mega Country [Cd 3]
DYEAR=1900
DGENRE=Country
TTITLE0=LYNN ANDERSON - ROSE GARDEN
TTITLE1=FRANKIE LAINE - HIGH NOON
TTITLE2=DOLLY PARTON - RELEASE ME
TTITLE3=HANK WILLIAMS - TAKE THESE CHAINS  FROM MY HEART
TTITLE4=PATSY CLINE - I'VE LOVED AND LOST AGAIN
TTITLE5=TEX RITTER - CONVERSATION WITH A GUN
TTITLE6=BILL ANDERSON and VINCE GILL - SLIPPIN' AWAY
TTITLE7=DONNA FARGO - STICKS AND STONES
TTITLE8=JACK GREENE - THERE GOES MY EVERYTHING
TTITLE9=ELVIS PRESLEY - I'M LEFT , YOU'RE RIGHT SHE'S GONE
TTITLE10=JOHNNY PAYCHECK - SOMEONE TO GIVE MY LOVE TO
TTITLE11=MARTY ROBBINS - I'LL GO ALONE
TTITLE12=BILLIE JOE SPEARS - DALLAS
TTITLE13=JOHNNY CASH - DON'T MAKE ME GO
TTITLE14=PORTER WAGONEER - A SATISFIED MIND
TTITLE15=LACY J. DALTON - DREAM BABY
TTITLE16=HOLLY DUNN - THERE GOES MY HEART AGAIN
TTITLE17=BOXCAR WILLIE - I SAW THE LIGHT
TTITLE18=FARON YOUNG - COUNTRY GIRL
TTITLE19=DOC WATSON - TOM DOOLEY
EXTD=
EXTT0=
EXTT1=
EXTT2=
EXTT3=
EXTT4=
EXTT5=
EXTT6=
EXTT7=
EXTT8=
EXTT9=
EXTT10=
EXTT11=
EXTT12=
EXTT13=
EXTT14=
EXTT15=
EXTT16=
EXTT17=
EXTT18=
EXTT19=
PLAYORDER=
